<svg xmlns="http://www.w3.org/2000/svg" viewBox="0 0 200 200" width="200" height="200">
  <defs>
    <linearGradient id="goldGradient" x1="0%" y1="0%" x2="100%" y2="100%">
      <stop offset="0%" style="stop-color:#ffd700;stop-opacity:1" />
      <stop offset="50%" style="stop-color:#ffed4e;stop-opacity:1" />
      <stop offset="100%" style="stop-color:#ff8c00;stop-opacity:1" />
    </linearGradient>
    <linearGradient id="innerGradient" x1="0%" y1="0%" x2="100%" y2="100%">
      <stop offset="0%" style="stop-color:#2d3748;stop-opacity:1" />
      <stop offset="100%" style="stop-color:#1a202c;stop-opacity:1" />
    </linearGradient>
  </defs>
  
  <!-- Outer circle -->
  <circle cx="100" cy="100" r="90" fill="url(#goldGradient)" stroke="none"/>
  
  <!-- Inner dark circle -->
  <circle cx="100" cy="100" r="75" fill="url(#innerGradient)" stroke="none"/>
  
  <!-- C symbol with $ accents -->
  <g fill="url(#goldGradient)" stroke="none">
    <!-- Top vertical line -->
    <rect x="95" y="30" width="10" height="25" />
    
    <!-- Main C shape -->
    <path d="M 60 100 A 40 40 0 0 1 100 60 L 100 75 A 25 25 0 0 0 75 100 A 25 25 0 0 0 100 125 L 100 140 A 40 40 0 0 1 60 100 Z" />
    
    <!-- Right opening of C -->
    <rect x="100" y="75" width="30" height="10" />
    <rect x="100" y="115" width="30" height="10" />
    
    <!-- Bottom vertical line -->
    <rect x="95" y="145" width="10" height="25" />
  </g>
</svg>
